# Blender 5.0.1
# www.blender.org
mtllib scene_background.mtl
o Plane
v -78.614998 0.000002 26.117270
v 78.614998 0.000002 26.117270
v -78.614998 35.773010 -26.117271
v 78.614998 35.773010 -26.117271
v -78.614998 -0.000002 -22.798679
v -78.614998 3.318589 -26.117270
v -78.614998 0.040855 -23.317823
v -78.614998 0.162421 -23.824183
v -78.614998 0.361703 -24.305290
v -78.614998 0.633792 -24.749300
v -78.614998 0.971991 -25.145279
v -78.614998 1.367970 -25.483477
v -78.614998 1.811980 -25.755566
v -78.614998 2.293088 -25.954849
v -78.614998 2.799447 -26.076414
v 78.614998 3.318589 -26.117270
v 78.614998 -0.000002 -22.798679
v 78.614998 2.799447 -26.076414
v 78.614998 2.293088 -25.954849
v 78.614998 1.811980 -25.755566
v 78.614998 1.367970 -25.483477
v 78.614998 0.971991 -25.145279
v 78.614998 0.633792 -24.749300
v 78.614998 0.361703 -24.305290
v 78.614998 0.162421 -23.824183
v 78.614998 0.040855 -23.317823
vn -0.0000 0.0393 0.9992
vn -0.0000 0.1564 0.9877
vn -0.0000 0.3090 0.9511
vn -0.0000 0.4540 0.8910
vn -0.0000 0.5878 0.8090
vn -0.0000 0.7071 0.7071
vn -0.0000 0.8090 0.5878
vn -0.0000 0.8910 0.4540
vn -0.0000 0.9511 0.3090
vn -0.0000 0.9877 0.1564
vn -0.0000 0.9992 0.0393
vn -0.0000 1.0000 -0.0000
vn -0.0000 -0.0000 1.0000
vt 1.000000 1.000000
vt 0.000000 1.000000
vt 0.000000 0.973811
vt 1.000000 0.973811
vt 0.000000 0.965311
vt 1.000000 0.965311
vt 0.000000 0.956100
vt 1.000000 0.956100
vt 0.000000 0.946406
vt 1.000000 0.946406
vt 0.000000 0.936468
vt 1.000000 0.936468
vt 0.000000 0.000000
vt 1.000000 0.000000
s 1
usemtl Material.001
f 16/1/1 6/2/1 15/2/2 18/1/2
f 18/1/2 15/2/2 14/2/3 19/1/3
f 19/1/3 14/2/3 13/2/4 20/1/4
f 20/1/4 13/2/4 12/2/5 21/1/5
f 21/1/5 12/2/5 11/2/6 22/1/6
f 22/1/6 11/2/6 10/3/7 23/4/7
f 23/4/7 10/3/7 9/5/8 24/6/8
f 24/6/8 9/5/8 8/7/9 25/8/9
f 25/8/9 8/7/9 7/9/10 26/10/10
f 26/10/10 7/9/10 5/11/11 17/12/11
f 1/13/12 2/14/12 17/12/11 5/11/11
f 6/2/1 16/1/1 4/1/13 3/2/13
